<?xml version="1.0" encoding="utf-8"?>
<!-- Generator: Adobe Illustrator 21.1.0, SVG Export Plug-In . SVG Version: 6.00 Build 0)  -->
<svg version="1.1" id="Слой_1" xmlns="http://www.w3.org/2000/svg" xmlns:xlink="http://www.w3.org/1999/xlink" x="0px" y="0px"
	 viewBox="0 0 512 512" enable-background="new 0 0 512 512" xml:space="preserve">
<path fill="none" stroke="#000000" stroke-width="5" stroke-miterlimit="10" d="M302.8,206"/>
<path fill="none" stroke="#000000" stroke-width="30" stroke-miterlimit="10" d="M491,256L256,491L21,256L256,21L491,256z M206,306
	l100-100"/>
<g>
	<path d="M174.8,154.2h29.9c11.6,0,20.3,1.7,25.9,5.2c5.6,3.5,8.5,8.8,8.5,16.1c0,4.8-1.2,8.9-3.7,12.3s-5.7,5.6-9.7,6.6v0.6
		c5.3,1.4,9.2,3.8,11.5,7c2.4,3.3,3.6,7.5,3.6,12.8c0,7.8-2.9,13.9-8.8,18.4c-5.8,4.5-13.8,6.7-23.9,6.7h-33.3V154.2z M198,187h7
		c3.3,0,5.9-0.7,7.7-2.1c1.8-1.4,2.7-3.4,2.7-6.1c0-4.8-3.6-7.2-10.9-7.2H198V187z M198,204v18h8.1c7.2,0,10.8-3,10.8-9.1
		c0-2.9-1-5-2.9-6.6s-4.7-2.3-8.4-2.3H198z"/>
</g>
<g>
	<path d="M346.8,369.8h-30.4l-31.3-60.4h-0.5c0.7,9.5,1.1,16.7,1.1,21.7v38.6h-20.5v-85.7h30.2l31.2,59.5h0.4
		c-0.5-8.6-0.8-15.6-0.8-20.8v-38.7h20.6V369.8z"/>
</g>
<g>
</g>
<g>
</g>
<g>
</g>
<g>
</g>
<g>
</g>
<g>
</g>
<g>
</g>
<g>
</g>
<g>
</g>
<g>
</g>
<g>
</g>
<g>
</g>
<g>
</g>
<g>
</g>
<g>
</g>
</svg>
